# xmcd
#
# Track frame offsets: 
#        150
#        18901
#        38379
#        79754
#        122378
#        137507
#        211229
#        227460
#        246576
#        280391
#
# Disc length: 4194 seconds
#
# Revision: 0
# Processed by: cddbd v1.5.2PL0 Copyright (c) Steve Scherf et al.
# Submitted via: ExactAudioCopy v0.99pb3
#
DISCID=7810600a
DTITLE=Buddy Guy - Live at the Checkerboard Lounge
DYEAR=2007
DGENRE=Blues
TTITLE0=Buddy's Blues: Part One
TTITLE1=Done Got Over You
TTITLE2=I've Got A Right to Love My Woman
TTITLE3=Tell Me What's Inside Of You (Version 1)
TTITLE4=The Things I Used To Do
TTITLE5=The Dollar Done Fell
TTITLE6=Buddy's Blues: Part Two
TTITLE7=Get Up Get Down
TTITLE8=Don't Answer The Door
TTITLE9=Tell Me What's Inside Of You (Version 2)
EXTD=
EXTT0=
EXTT1=
EXTT2=
EXTT3=
EXTT4=
EXTT5=
EXTT6=
EXTT7=
EXTT8=
EXTT9=
PLAYORDER=
